<svg width="64" height="64" viewBox="0 0 64 64" fill="none" xmlns="http://www.w3.org/2000/svg">
<rect width="64" height="64" fill="#F5F5F5"/>
<rect width="64" height="64" fill="#0F172A"/>
<rect width="64" height="64" fill="#0F172A"/>
<path d="M13.4762 55.8824C12.2452 55.8824 11.1918 55.2723 10.316 54.0523C9.44016 52.8323 9.00149 51.3638 9 49.6471V12.2353C9 10.5206 9.43867 9.05322 10.316 7.83318C11.1933 6.61314 12.2467 6.00208 13.4762 6L17.9524 18.4706H24.6667L20.1905 6H24.6667L29.1428 18.4706H35.8571L31.3809 6H35.8571L40.3333 18.4706H47.0476L42.5714 6H49.2857C50.5166 6 51.5708 6.61106 52.4481 7.83318C53.3255 9.05529 53.7634 10.5227 53.7619 12.2353V24.7059H13.4762V49.6471H31.3809V55.8824H13.4762ZM35.8571 59V49.4132L48.2226 32.2662C48.5583 31.7985 48.9313 31.4608 49.3416 31.2529C49.752 31.0451 50.1623 30.9412 50.5726 30.9412C51.0202 30.9412 51.4492 31.0586 51.8595 31.2935C52.2698 31.5283 52.6428 31.8785 52.9786 32.3441L55.0488 35.2279C55.3472 35.6956 55.5807 36.2152 55.7493 36.7868C55.9179 37.3583 56.0015 37.9299 56 38.5015C55.9985 39.073 55.9239 39.6581 55.7762 40.2567C55.6285 40.8553 55.386 41.3874 55.0488 41.8529L42.7393 59H35.8571ZM39.2143 54.3235H41.3405L48.1107 44.8147L47.1036 43.3338L46.0405 41.9309L39.2143 51.3618V54.3235ZM47.1036 43.3338L46.0405 41.9309L48.1107 44.8147L47.1036 43.3338Z" fill="#22D3EE"/>
</svg>
